<svg xmlns="http://www.w3.org/2000/svg" width="143.953" height="20.002" viewBox="0 0 143.953 20.002">
  <g id="グループ_723" data-name="グループ 723" transform="translate(-147.417 -335.085)">
    <g id="グループ_719" data-name="グループ 719" transform="translate(231.081 343.013)">
      <path id="パス_1003" data-name="パス 1003" d="M328.581,362.012l-3.309-10.073h2.034l1.4,4.573c.395,1.271.729,2.452,1,3.677h.031c.273-1.2.637-2.42,1.047-3.647l1.487-4.6h1.988l-3.536,10.073Z" transform="translate(-325.272 -351.939)" fill="white"/>
      <path id="パス_1004" data-name="パス 1004" d="M348.809,351.939v10.073h-1.867V351.939Z" transform="translate(-336.748 -351.939)" fill="white"/>
      <path id="パス_1005" data-name="パス 1005" d="M360.621,357.544h-3.854V360.5h4.31v1.51H354.9V351.939h5.949v1.509h-4.082v2.6h3.854Z" transform="translate(-340.962 -351.939)" fill="white"/>
      <path id="パス_1006" data-name="パス 1006" d="M373.165,353.479h-2.914v-1.54h7.725v1.54h-2.945v8.534h-1.867Z" transform="translate(-349.093 -351.939)" fill="white"/>
      <path id="パス_1007" data-name="パス 1007" d="M389.219,362.012V351.939h2.125l2.641,4.32a27.592,27.592,0,0,1,1.745,3.377h.031c-.122-1.345-.167-2.645-.167-4.184v-3.512h1.73v10.073H395.4l-2.671-4.424a34.834,34.834,0,0,1-1.836-3.482l-.045.016c.076,1.3.091,2.63.091,4.289v3.6Z" transform="translate(-359.138 -351.939)" fill="white"/>
      <path id="パス_1008" data-name="パス 1008" d="M411.468,359.157l-.88,2.855H408.66l3.279-10.073h2.383l3.323,10.073h-2l-.926-2.855Zm2.929-1.389-.8-2.481c-.2-.612-.364-1.3-.516-1.883h-.03c-.152.583-.3,1.285-.486,1.883l-.789,2.481Z" transform="translate(-369.434 -351.939)" fill="white"/>
      <path id="パス_1009" data-name="パス 1009" d="M439.133,357.9c-.06-1.3-.136-2.87-.121-4.23h-.045c-.334,1.226-.759,2.586-1.215,3.856l-1.487,4.364h-1.441l-1.366-4.3c-.395-1.285-.759-2.661-1.032-3.916h-.031c-.045,1.315-.106,2.915-.182,4.29l-.228,4.05H430.24l.683-10.073h2.459l1.335,4.05c.364,1.181.683,2.376.941,3.5h.046c.273-1.09.622-2.331,1.017-3.512l1.411-4.036h2.428l.592,10.073h-1.821Z" transform="translate(-380.863 -351.939)" fill="white"/>
    </g>
    <g id="グループ_720" data-name="グループ 720" transform="translate(231.081 337.085)">
      <path id="パス_1010" data-name="パス 1010" d="M325.461,343.181a2.374,2.374,0,0,0,1.137.3c.552,0,.858-.258.858-.641,0-.356-.237-.565-.837-.781-.774-.279-1.269-.691-1.269-1.368,0-.767.642-1.353,1.66-1.353a2.49,2.49,0,0,1,1.13.237l-.209.691a1.992,1.992,0,0,0-.935-.223c-.544,0-.781.293-.781.565,0,.362.272.53.9.774.816.307,1.213.718,1.213,1.4,0,.753-.572,1.409-1.786,1.409a2.8,2.8,0,0,1-1.27-.293Z" transform="translate(-325.272 -339.337)" fill="white"/>
      <path id="パス_1011" data-name="パス 1011" d="M333.74,344.2v-1.961l-1.486-2.741h.977l.565,1.207c.16.349.279.614.4.935h.015c.118-.3.251-.594.411-.935l.565-1.207h.969l-1.563,2.721V344.2Z" transform="translate(-328.97 -339.424)" fill="white"/>
      <path id="パス_1012" data-name="パス 1012" d="M340.922,343.181a2.378,2.378,0,0,0,1.137.3c.551,0,.858-.258.858-.641,0-.356-.237-.565-.837-.781-.774-.279-1.27-.691-1.27-1.368,0-.767.642-1.353,1.661-1.353a2.486,2.486,0,0,1,1.13.237l-.209.691a1.99,1.99,0,0,0-.935-.223c-.544,0-.781.293-.781.565,0,.362.272.53.9.774.816.307,1.214.718,1.214,1.4,0,.753-.572,1.409-1.786,1.409a2.8,2.8,0,0,1-1.269-.293Z" transform="translate(-333.461 -339.337)" fill="white"/>
      <path id="パス_1013" data-name="パス 1013" d="M349.274,340.219h-1.339V339.5h3.551v.718h-1.353V344.2h-.858Z" transform="translate(-337.274 -339.424)" fill="white"/>
      <path id="パス_1014" data-name="パス 1014" d="M359.279,342.117h-1.772V343.5h1.981v.7h-2.839v-4.7h2.734v.7h-1.876v1.214h1.772Z" transform="translate(-341.889 -339.424)" fill="white"/>
      <path id="パス_1015" data-name="パス 1015" d="M368.116,342.284c-.028-.607-.063-1.34-.056-1.975h-.021c-.154.572-.349,1.207-.558,1.8l-.684,2.036h-.662l-.628-2.009c-.181-.6-.349-1.241-.474-1.828h-.014c-.021.614-.049,1.361-.084,2l-.1,1.891h-.8l.314-4.7h1.13l.614,1.89c.167.551.314,1.109.433,1.632h.021c.125-.509.286-1.088.468-1.639l.649-1.883h1.116l.272,4.7h-.837Z" transform="translate(-345.797 -339.424)" fill="white"/>
    </g>
    <g id="グループ_721" data-name="グループ 721" transform="translate(257.021 337.085)">
      <path id="パス_1016" data-name="パス 1016" d="M380.605,343.181a2.376,2.376,0,0,0,1.137.3c.551,0,.858-.258.858-.641,0-.356-.237-.565-.837-.781-.774-.279-1.269-.691-1.269-1.368,0-.767.642-1.353,1.66-1.353a2.49,2.49,0,0,1,1.13.237l-.209.691a1.991,1.991,0,0,0-.935-.223c-.545,0-.781.293-.781.565,0,.362.272.53.9.774.816.307,1.214.718,1.214,1.4,0,.753-.572,1.409-1.786,1.409a2.793,2.793,0,0,1-1.269-.293Z" transform="translate(-380.417 -339.337)" fill="white"/>
      <path id="パス_1017" data-name="パス 1017" d="M392.179,341.716a2.223,2.223,0,0,1-2.253,2.477,2.172,2.172,0,0,1-2.162-2.392A2.251,2.251,0,0,1,390,339.337,2.171,2.171,0,0,1,392.179,341.716Zm-3.509.07c0,.956.481,1.716,1.3,1.716s1.3-.768,1.3-1.751c0-.886-.439-1.723-1.3-1.723S388.67,340.816,388.67,341.786Z" transform="translate(-384.307 -339.337)" fill="white"/>
      <path id="パス_1018" data-name="パス 1018" d="M398.713,339.5h.858v3.983H401.5v.718h-2.79Z" transform="translate(-390.107 -339.424)" fill="white"/>
      <path id="パス_1019" data-name="パス 1019" d="M406.356,339.5v2.741c0,.922.384,1.347.963,1.347.621,0,.991-.425.991-1.347V339.5h.858v2.686c0,1.451-.747,2.093-1.877,2.093-1.088,0-1.793-.606-1.793-2.086V339.5Z" transform="translate(-393.7 -339.424)" fill="white"/>
      <path id="パス_1020" data-name="パス 1020" d="M415.787,340.219h-1.34V339.5H418v.718h-1.353V344.2h-.858Z" transform="translate(-398.439 -339.424)" fill="white"/>
      <path id="パス_1021" data-name="パス 1021" d="M424.019,339.5v4.7h-.858v-4.7Z" transform="translate(-403.054 -339.424)" fill="white"/>
      <path id="パス_1022" data-name="パス 1022" d="M430.969,341.716a2.223,2.223,0,0,1-2.253,2.477,2.173,2.173,0,0,1-2.163-2.392,2.251,2.251,0,0,1,2.233-2.463A2.171,2.171,0,0,1,430.969,341.716Zm-3.509.07c0,.956.481,1.716,1.3,1.716s1.3-.768,1.3-1.751c0-.886-.439-1.723-1.3-1.723S427.46,340.816,427.46,341.786Z" transform="translate(-404.85 -339.337)" fill="white"/>
      <path id="パス_1023" data-name="パス 1023" d="M437.37,344.2v-4.7h.977l1.214,2.016a12.81,12.81,0,0,1,.8,1.577h.014c-.055-.628-.077-1.235-.077-1.953V339.5h.8v4.7h-.886l-1.228-2.065a16.326,16.326,0,0,1-.844-1.626l-.021.008c.035.607.042,1.228.042,2V344.2Z" transform="translate(-410.579 -339.424)" fill="white"/>
      <path id="パス_1024" data-name="パス 1024" d="M447.13,343.181a2.379,2.379,0,0,0,1.137.3c.552,0,.858-.258.858-.641,0-.356-.237-.565-.837-.781-.774-.279-1.27-.691-1.27-1.368,0-.767.642-1.353,1.661-1.353a2.486,2.486,0,0,1,1.13.237l-.209.691a1.992,1.992,0,0,0-.935-.223c-.544,0-.781.293-.781.565,0,.362.272.53.9.774.816.307,1.213.718,1.213,1.4,0,.753-.572,1.409-1.786,1.409a2.8,2.8,0,0,1-1.27-.293Z" transform="translate(-415.648 -339.337)" fill="white"/>
    </g>
    <path id="パス_1025" data-name="パス 1025" d="M250.738,335.085l-16,16-1.6-1.6.8-2.4,2.4-.8.8-2.4,2.4-.8.8-2.4-2-2-.8,2.4-2.4.8-.8,2.4-2.4.8-.8,2.4-2.406-2.406,7.987-7.987-1.995-1.995-7.987,7.987-4-4-6,6,2,2,4-4,2,2-6,6-6.007-6.007,8-8-1.994-1.994-10,10,10,10,8-8,8,8,8-8,8,8,10-10Zm-6.024,9.977,6-6h0l.021-.021-.021.021,6.024,6.023-6,6Z" transform="translate(-32.474 0)" fill="white"/>
    <g id="グループ_722" data-name="グループ 722" transform="translate(147.417 337.085)">
      <path id="パス_1026" data-name="パス 1026" d="M168.474,355.338h2.082a3.9,3.9,0,0,0,3.9-3.9v-6.3a3.9,3.9,0,0,0-1.485-3.064l-3.46-2.732-3.46,2.732a3.9,3.9,0,0,0-1.485,3.064v6.3A3.9,3.9,0,0,0,168.474,355.338Z" transform="translate(-156.501 -339.337)" fill="white"/>
      <path id="パス_1027" data-name="パス 1027" d="M156.39,358.269a4.921,4.921,0,0,1-1.946-3.9h0v-5.59a3.9,3.9,0,0,0-3.9-3.9h-3.123v9.494a3.9,3.9,0,0,0,3.9,3.9Z" transform="translate(-147.417 -342.268)" fill="white"/>
      <path id="パス_1028" data-name="パス 1028" d="M189.523,344.871a3.9,3.9,0,0,0-3.9,3.9v5.59h0a4.922,4.922,0,0,1-1.946,3.9h5.069a3.9,3.9,0,0,0,3.9-3.9v-9.494Z" transform="translate(-166.618 -342.268)" fill="white"/>
    </g>
  </g>
</svg>
