<svg xmlns="http://www.w3.org/2000/svg" xmlns:xlink="http://www.w3.org/1999/xlink" width="115" height="40" viewBox="0 0 115 40">
  <defs>
    <clipPath id="clip-path">
      <rect id="長方形_142" data-name="長方形 142" width="115" height="40" transform="translate(0 0.103)" fill="#fff" stroke="#707070" stroke-width="1"/>
    </clipPath>
  </defs>
  <g id="logo" transform="translate(0 -0.103)" clip-path="url(#clip-path)">
    <g id="グループ_304" data-name="グループ 304" transform="translate(0 0.109)">
      <path id="パス_7253" data-name="パス 7253" d="M120.009,35.664a1.865,1.865,0,0,1,0,2.63L100.872,57.431a1.865,1.865,0,0,1-2.63,0l-2-2a1.865,1.865,0,0,1,0-2.63l19.136-19.136a1.864,1.864,0,0,1,2.629,0Z" transform="translate(-71.949 -32.346)" fill="white"/>
      <path id="パス_7254" data-name="パス 7254" d="M132.521,130.545l-.159,1.161a7.6,7.6,0,0,1-2.326.263,5.4,5.4,0,0,1-1.767-.237,3.268,3.268,0,0,1-2.144-2.164,4.078,4.078,0,0,1-.244-1.437,5.268,5.268,0,0,1,.448-2.176,3.539,3.539,0,0,1,1.349-1.577,4.179,4.179,0,0,1,2.287-.575,4.452,4.452,0,0,1,1.369.209,2.69,2.69,0,0,1,1.085.633,2.87,2.87,0,0,1,.669,1.05,3.845,3.845,0,0,1,.236,1.365,6.445,6.445,0,0,1-.048.681h-6.093s-.032.379-.03.531c.016,1.469.617,2.509,2.887,2.545a8.706,8.706,0,0,0,2.48-.273m-5.184-3.826h4.69a1.738,1.738,0,0,0-1.972-1.917,2.379,2.379,0,0,0-2.718,1.917" transform="translate(-91.936 -92.394)" fill="white"/>
      <path id="パス_7255" data-name="パス 7255" d="M106.476,124.751a3.161,3.161,0,0,0-2.322-.9,3.686,3.686,0,0,0-3.127,1.044l.037-.815h-1.4l-.392,7.915h1.408s.161-3.12.211-3.945c.128-2.1,1.349-2.84,2.788-2.84,2.081,0,2.159,1.292,2.159,1.753,0,.32-.27,5.032-.27,5.032h1.395s.274-4.893.219-5.612a2.451,2.451,0,0,0-.7-1.628" transform="translate(-74.313 -92.416)" fill="white"/>
      <path id="パス_7256" data-name="パス 7256" d="M153.458,119.595l-1.247,0-.08,1.673h-1.082l-.046.985h1.052s-.229,4.674-.243,4.821a2.125,2.125,0,0,0,.281,1.385,1.323,1.323,0,0,0,.657.567,2.516,2.516,0,0,0,1.04.157,9.032,9.032,0,0,0,1.528-.169l.109-1.164a8.827,8.827,0,0,1-1.837.107.539.539,0,0,1-.409-.3,3.6,3.6,0,0,1-.032-1.21c.023-.684.211-4.19.211-4.19h2.178l.038-.985H153.4Z" transform="translate(-108.57 -89.605)" fill="white"/>
      <path id="パス_7257" data-name="パス 7257" d="M175.522,130.889l-1.78-6.345h-1.661l-2.3,6.345-2.256-6.345h-1.343l2.8,7.915H170.5l2.387-6.5c.105.357,1.781,6.5,1.781,6.5h1.511l3.505-7.915h-1.541Z" transform="translate(-118.624 -92.884)" fill="white"/>
      <path id="パス_7258" data-name="パス 7258" d="M238.028,124.27a2.694,2.694,0,0,0-2.384.9l.04-.814h-1.331l-.375,7.915h1.312s.18-4.14.242-4.786a2.578,2.578,0,0,1,2.332-2.109,3.746,3.746,0,0,1,.874.134l.14-1.1a4.673,4.673,0,0,0-.849-.139" transform="translate(-163.513 -92.699)" fill="white"/>
      <path id="パス_7259" data-name="パス 7259" d="M251.171,116.735l-.4,10.553h1.334l.424-10.553Z" transform="translate(-174.633 -87.713)" fill="white"/>
      <path id="パス_7260" data-name="パス 7260" d="M260.329,124.544H258.7l-3.425,3.464,3.742,4.451h1.595l-3.8-4.443Z" transform="translate(-177.615 -92.884)" fill="white"/>
      <path id="パス_7261" data-name="パス 7261" d="M210.887,123.189a4.542,4.542,0,0,0-2.211.45A3.882,3.882,0,0,0,207,125.261a5.013,5.013,0,0,0-.527,2.315,4.633,4.633,0,0,0,.288,1.628,3.474,3.474,0,0,0,.842,1.313,3.412,3.412,0,0,0,1.314.789,5.058,5.058,0,0,0,1.612.252,5.189,5.189,0,0,0,1.721-.28,3.307,3.307,0,0,0,1.358-.879,4.193,4.193,0,0,0,.861-1.459,5.573,5.573,0,0,0,.308-1.8c.033-1.942-.932-3.845-3.887-3.954m-.306,7.181a2.574,2.574,0,0,1-2.777-2.763c.107-2.606,1.546-3.245,2.97-3.221a2.548,2.548,0,0,1,2.692,2.872c-.039,1.731-1,3.161-2.885,3.112" transform="translate(-145.299 -91.985)" fill="white"/>
      <path id="パス_7262" data-name="パス 7262" d="M63.086,57.417a1.865,1.865,0,0,0,2.63,0L84.852,38.28a1.865,1.865,0,0,0,0-2.63l-1.989-1.989a1.865,1.865,0,0,0-2.63,0L61.1,52.8a1.865,1.865,0,0,0,0,2.63Z" transform="translate(-48.679 -32.347)" fill="white"/>
      <g id="グループ_303" data-name="グループ 303">
        <path id="パス_7263" data-name="パス 7263" d="M276.084,127.433c-1.14-.563-1.41-.865-1.382-1.5.024-.529.427-1.061,1.433-1.018.631.027,1.761.11,1.869.151l.242-.977a14.019,14.019,0,0,0-2.027-.212c-.062,0-.123,0-.183,0a2.283,2.283,0,0,0-2.548,2.111c-.068,1.016.568,1.85,2,2.43,1.154.468,1.527.911,1.425,1.536-.12.723-.657,1.028-1.683,1.013a8.284,8.284,0,0,1-2.061-.29l-.229,1.046a8.428,8.428,0,0,0,1.906.291c.077,0,.529.005.6.005,1.63,0,2.493-.706,2.608-2.061.111-1.316-.724-1.9-1.975-2.519" transform="translate(-189.313 -92.439)" fill="white"/>
        <path id="パス_7264" data-name="パス 7264" d="M27.939,57.422a1.865,1.865,0,0,0,2.63,0L49.707,38.283a1.865,1.865,0,0,0,0-2.63l-1.992-1.992a1.865,1.865,0,0,0-2.63,0L25.947,52.8a1.865,1.865,0,0,0,0,2.63Z" transform="translate(-25.404 -32.347)" fill="white"/>
        <path id="パス_7265" data-name="パス 7265" d="M217.146,30.832,196.039,51.939l-2.11-2.111,1.055-3.166,3.166-1.055,1.055-3.166,3.166-1.055,1.055-3.166-2.638-2.638-1.055,3.166L196.567,39.8l-1.055,3.166-3.166,1.055L191.29,47.19l-3.174-3.173,10.536-10.536-2.631-2.631L185.486,41.385l-5.277-5.277-7.915,7.915,2.639,2.638,5.276-5.277,2.639,2.638-7.915,7.915-7.924-7.924,10.553-10.553-2.629-2.629L161.741,44.024l13.192,13.192,10.553-10.553,10.553,10.553,10.554-10.553,10.553,10.553,13.192-13.192ZM209.2,43.993l7.915-7.915.027-.027-.027.027,7.945,7.945-7.915,7.915Z" transform="translate(-115.681 -30.832)" fill="white"/>
      </g>
    </g>
  </g>
</svg>
